<?xml version="1.0" standalone="no"?>
<!DOCTYPE svg PUBLIC "-//W3C//DTD SVG 1.1//EN" "http://www.w3.org/Graphics/SVG/1.1/DTD/svg11.dtd" >
<svg xmlns="http://www.w3.org/2000/svg" xmlns:xlink="http://www.w3.org/1999/xlink" version="1.1">
<metadata></metadata>
<defs>
<font id="silkscreennormal" horiz-adv-x="750" >
<font-face units-per-em="1000" ascent="800" descent="-200" />
<missing-glyph horiz-adv-x="500" />
<glyph horiz-adv-x="0" />
<glyph unicode="&#xd;" horiz-adv-x="500" />
<glyph unicode=" "  horiz-adv-x="500" />
<glyph unicode="&#x09;" horiz-adv-x="500" />
<glyph unicode="&#xa0;" horiz-adv-x="500" />
<glyph unicode="!" horiz-adv-x="375" d="M125 250h125v375h-125v-375zM125 0h125v125h-125v-125z" />
<glyph unicode="&#x22;" horiz-adv-x="625" d="M125 625v-250h125v250h-125zM375 375h125v250h-125v-250z" />
<glyph unicode="#" horiz-adv-x="875" d="M125 125h125v-125h125v125h125v-125h125v125h125v125h-125v125h125v125h-125v125h-125v-125h-125v125h-125v-125h-125v-125h125v-125h-125v-125zM375 375h125v-125h-125v125z" />
<glyph unicode="$" d="M125 0h125v-125h125v125h125v125h125v125h-125v125h-250v125h-125v-125h125v-125h250v-125h-375v-125zM625 500v125h-125v125h-125v-125h-125v-125h375z" />
<glyph unicode="%" horiz-adv-x="875" d="M500 250v-250h250v250h-250v125h-125v250h-250v-250h250v-125h125zM375 0v250h-125v-250h125zM625 375v250h-125v-250h125z" />
<glyph unicode="&#x26;" d="M250 0h125v-125h125v125h125v125h-375v125h250v125h-250v125h375v125h-125v125h-125v-125h-125v-125h-125v-125h125v-125h-125v-125h125v-125z" />
<glyph unicode="'" horiz-adv-x="375" d="M125 375h125v250h-125v-250z" />
<glyph unicode="(" horiz-adv-x="500" d="M250 0h125v125h-125v375h-125v-375h125v-125zM375 500v125h-125v-125h125z" />
<glyph unicode=")" horiz-adv-x="500" d="M375 125v375h-125v125h-125v-125h125v-375h125zM125 0h125v125h-125v-125z" />
<glyph unicode="*" horiz-adv-x="875" d="M375 0h125v250h125v-125h125v125h-125v125h-125v250h-125v-250h-125v125h-125v-125h125v-125h-125v-125h125v125h125v-250zM750 375v125h-125v-125h125z" />
<glyph unicode="+" horiz-adv-x="875" d="M375 0h125v250h250v125h-250v250h-125v-250h-250v-125h250v-250z" />
<glyph unicode="," horiz-adv-x="500" d="M125 -125h125v125h-125v-125zM375 0v125h-125v-125h125z" />
<glyph unicode="-" horiz-adv-x="625" d="M125 250h375v125h-375v-125z" />
<glyph unicode="." horiz-adv-x="375" d="M125 125v-125h125v125h-125z" />
<glyph unicode="/" horiz-adv-x="625" d="M250 0v250h-125v-250h125zM500 375v250h-125v-250h125zM375 250v125h-125v-125h125z" />
<glyph unicode="0" d="M125 125h125v-125h250v125h125v375h-125v125h-250v-125h-125v-375zM250 495h250v-365h-250v365z" />
<glyph unicode="1" horiz-adv-x="625" d="M125 0h375v125h-125v500h-250v-125h125v-375h-125v-125z" />
<glyph unicode="2" d="M125 0h500v125h-375v125h-125v-250zM625 375v125h-125v125h-375v-125h375v-125h125zM500 250v125h-250v-125h250z" />
<glyph unicode="3" d="M625 375v125h-125v125h-375v-125h375v-125h125zM625 125v125h-125v125h-250v-125h250v-125h125zM125 0h375v125h-375v-125z" />
<glyph unicode="4" d="M500 0v250h125v125h-125v250h-125v-250h-125v250h-125v-375h250v-250h125z" />
<glyph unicode="5" d="M625 125v125h-125v125h-250v125h375v125h-500v-375h375v-125h125zM125 0h375v125h-375v-125z" />
<glyph unicode="6" d="M250 0h250v125h125v125h-125v125h-250v125h250v125h-250v-125h-125v-375h125v-125zM250 245h250v-115h-250v115z" />
<glyph unicode="7" d="M250 0h125v250h125v125h125v250h-500v-125h375v-125h-125v-125h-125v-250z" />
<glyph unicode="8" d="M250 0h250v125h125v125h-125v125h125v125h-125v125h-250v-125h-125v-125h125v-125h-125v-125h125v-125zM250 495h250v-115h-250v115zM250 245h250v-115h-250v115z" />
<glyph unicode="9" d="M250 0h250v125h125v375h-125v125h-250v-125h-125v-125h125v-125h250v-125h-250v-125zM250 495h250v-115h-250v115z" />
<glyph unicode=":" horiz-adv-x="375" d="M125 125h125v125h-125v-125zM125 375h125v125h-125v-125z" />
<glyph unicode=";" horiz-adv-x="500" d="M125 0h125v125h-125v-125zM250 375h125v125h-125v-125zM375 125v125h-125v-125h125z" />
<glyph unicode="&#x3c;" horiz-adv-x="625" d="M375 0h125v125h-125v125h-125v125h-125v-125h125v-125h125v-125zM375 375v125h-125v-125h125zM500 500v125h-125v-125h125z" />
<glyph unicode="=" horiz-adv-x="625" d="M125 125h375v125h-375v-125zM125 375h375v125h-375v-125z" />
<glyph unicode="&#x3e;" horiz-adv-x="625" d="M500 250v125h-125v125h-125v125h-125v-125h125v-125h125v-125h125zM375 125v125h-125v-125h125zM125 0h125v125h-125v-125z" />
<glyph unicode="?" d="M625 375v125h-125v125h-375v-125h375v-125h125zM250 250h250v125h-250v-125zM250 0h125v125h-125v-125z" />
<glyph unicode="@" horiz-adv-x="875" d="M375 500v-250h250v125h125v125h-125v125h-375v-125h125zM250 0h375v125h-375v375h-125v-375h125v-125zM500 500h120v-125h-120v125z" />
<glyph unicode="A" d="M500 0h125v500h-125v125h-250v-125h-125v-500h125v250h250v-250zM250 375v120h250v-120h-250z" />
<glyph unicode="B" d="M125 0h375v125h125v375h-125v125h-375v-625zM250 500h245v-125h-245v125zM250 250h245v-125h-245v125z" />
<glyph unicode="C" d="M250 0h250v125h-250v375h-125v-375h125v-125zM500 500v-125h125v125h-125v125h-250v-125h250zM625 125v125h-125v-125h125z" />
<glyph unicode="D" d="M500 0v125h125v375h-125v125h-375v-625h375zM250 500h245v-375h-245v375z" />
<glyph unicode="E" horiz-adv-x="625" d="M125 0h375v125h-250v125h250v125h-250v125h250v125h-375v-625z" />
<glyph unicode="F" horiz-adv-x="625" d="M125 0h125v250h250v125h-250v125h250v125h-375v-625z" />
<glyph unicode="G" d="M625 125v250h-250v-125h125v-125h125zM625 500v125h-375v-125h375zM250 500h-125v-375h125v375zM250 0h250v125h-250v-125z" />
<glyph unicode="H" d="M500 0h125v625h-125v-250h-250v250h-125v-625h125v250h250v-250z" />
<glyph unicode="I" horiz-adv-x="375" d="M125 0h125v625h-125v-625z" />
<glyph unicode="J" d="M625 125v500h-125v-500h125zM250 0h250v125h-250v125h-125v-125h125v-125z" />
<glyph unicode="K" d="M250 0v250h125v-125h125v-125h125v125h-125v125h-125v125h-125v250h-125v-625h125zM500 375v125h-125v-125h125zM625 500v125h-125v-125h125z" />
<glyph unicode="L" horiz-adv-x="625" d="M125 0h375v125h-250v500h-125v-625z" />
<glyph unicode="M" horiz-adv-x="875" d="M125 0h125v375h125v-125h125v125h-125v125h-125v125h-125v-625zM625 375v-375h125v625h-125v-125h-125v-125h125z" />
<glyph unicode="N" horiz-adv-x="875" d="M125 0h125v375h125v-125h125v-125h125v-125h125v625h-125v-375h-125v125h-125v125h-125v125h-125v-625z" />
<glyph unicode="O" d="M125 125h125v-125h250v125h125v375h-125v125h-250v-125h-125v-375zM250 495h250v-365h-250v365z" />
<glyph unicode="P" d="M125 0h125v250h250v125h125v125h-125v125h-375v-625zM250 500h245v-125h-245v125z" />
<glyph unicode="Q" d="M250 0h250v-125h125v125h-125v125h125v375h-125v125h-250v-125h-125v-375h125v-125zM250 495h250v-365h-250v365z" />
<glyph unicode="R" d="M125 0h125v250h125v-125h125v-125h125v125h-125v250h125v125h-125v125h-375v-625zM250 500h245v-125h-245v125z" />
<glyph unicode="S" d="M625 125v125h-125v125h-250v125h-125v-125h125v-125h250v-125h125zM125 0h375v125h-375v-125zM625 500v125h-375v-125h375z" />
<glyph unicode="T" horiz-adv-x="625" d="M250 0h125v500h125v125h-375v-125h125v-500z" />
<glyph unicode="U" d="M250 0h250v125h-250v500h-125v-500h125v-125zM625 125v500h-125v-500h125z" />
<glyph unicode="V" horiz-adv-x="875" d="M375 0h125v125h-125v250h-125v250h-125v-250h125v-250h125v-125zM625 125v250h-125v-250h125zM750 375v250h-125v-250h125z" />
<glyph unicode="W" horiz-adv-x="875" d="M250 0h125v125h-125v500h-125v-500h125v-125zM750 125v500h-125v-500h125zM500 125v-125h125v125h-125v375h-125v-375h125z" />
<glyph unicode="X" horiz-adv-x="875" d="M500 250v-125h125v-125h125v125h-125v125h-125v125h-125v125h-125v125h-125v-125h125v-125h125v-125h125zM625 375v125h125v125h-125v-125h-125v-125h125zM125 0h125v125h-125v-125zM375 125v125h-125v-125h125z" />
<glyph unicode="Y" horiz-adv-x="875" d="M375 0h125v375h-125v125h-125v125h-125v-125h125v-125h125v-375zM625 375v125h-125v-125h125zM750 500v125h-125v-125h125z" />
<glyph unicode="Z" horiz-adv-x="625" d="M125 0h375v125h-250v125h-125v-250zM500 375v250h-375v-125h250v-125h125zM375 250v125h-125v-125h125z" />
<glyph unicode="[" horiz-adv-x="500" d="M375 0v125h-125v375h125v125h-250v-625h250z" />
<glyph unicode="\" horiz-adv-x="625" d="M375 0h125v250h-125v125h-125v250h-125v-250h125v-125h125v-250z" />
<glyph unicode="]" horiz-adv-x="500" d="M125 0h250v625h-250v-125h125v-375h-125v-125z" />
<glyph unicode="^" horiz-adv-x="625" d="M125 500h125v125h125v-125h125v125h-125v125h-125v-125h-125v-125z" />
<glyph unicode="_" d="M125 0v-125h500v125h-500z" />
<glyph unicode="`" horiz-adv-x="500" d="M125 625v-125h125v-125h125v125h-125v125h-125z" />
<glyph unicode="a" d="M500 0h125v500h-125v125h-250v-125h-125v-500h125v250h250v-250zM250 375v120h250v-120h-250z" />
<glyph unicode="b" d="M125 0h375v125h125v375h-125v125h-375v-625zM250 500h245v-125h-245v125zM250 250h245v-125h-245v125z" />
<glyph unicode="c" d="M250 0h250v125h-250v375h-125v-375h125v-125zM500 500v-125h125v125h-125v125h-250v-125h250zM625 125v125h-125v-125h125z" />
<glyph unicode="d" d="M500 0v125h125v375h-125v125h-375v-625h375zM250 500h245v-375h-245v375z" />
<glyph unicode="e" horiz-adv-x="625" d="M125 0h375v125h-250v125h250v125h-250v125h250v125h-375v-625z" />
<glyph unicode="f" horiz-adv-x="625" d="M125 0h125v250h250v125h-250v125h250v125h-375v-625z" />
<glyph unicode="g" d="M625 125v250h-250v-125h125v-125h125zM625 500v125h-375v-125h375zM250 500h-125v-375h125v375zM250 0h250v125h-250v-125z" />
<glyph unicode="h" d="M500 0h125v625h-125v-250h-250v250h-125v-625h125v250h250v-250z" />
<glyph unicode="i" horiz-adv-x="375" d="M125 0h125v625h-125v-625z" />
<glyph unicode="j" d="M625 125v500h-125v-500h125zM250 0h250v125h-250v125h-125v-125h125v-125z" />
<glyph unicode="k" d="M250 0v250h125v-125h125v-125h125v125h-125v125h-125v125h-125v250h-125v-625h125zM500 375v125h-125v-125h125zM625 500v125h-125v-125h125z" />
<glyph unicode="l" horiz-adv-x="625" d="M125 0h375v125h-250v500h-125v-625z" />
<glyph unicode="m" horiz-adv-x="875" d="M125 0h125v375h125v-125h125v125h-125v125h-125v125h-125v-625zM625 375v-375h125v625h-125v-125h-125v-125h125z" />
<glyph unicode="n" horiz-adv-x="875" d="M125 0h125v375h125v-125h125v-125h125v-125h125v625h-125v-375h-125v125h-125v125h-125v125h-125v-625z" />
<glyph unicode="o" d="M125 125h125v-125h250v125h125v375h-125v125h-250v-125h-125v-375zM250 495h250v-365h-250v365z" />
<glyph unicode="p" d="M125 0h125v250h250v125h125v125h-125v125h-375v-625zM250 500h245v-125h-245v125z" />
<glyph unicode="q" d="M250 0h250v-125h125v125h-125v125h125v375h-125v125h-250v-125h-125v-375h125v-125zM250 495h250v-365h-250v365z" />
<glyph unicode="r" d="M125 0h125v250h125v-125h125v-125h125v125h-125v250h125v125h-125v125h-375v-625zM250 500h245v-125h-245v125z" />
<glyph unicode="s" d="M625 125v125h-125v125h-250v125h-125v-125h125v-125h250v-125h125zM125 0h375v125h-375v-125zM625 500v125h-375v-125h375z" />
<glyph unicode="t" horiz-adv-x="625" d="M250 0h125v500h125v125h-375v-125h125v-500z" />
<glyph unicode="u" d="M250 0h250v125h-250v500h-125v-500h125v-125zM625 125v500h-125v-500h125z" />
<glyph unicode="v" horiz-adv-x="875" d="M375 0h125v125h-125v250h-125v250h-125v-250h125v-250h125v-125zM625 125v250h-125v-250h125zM750 375v250h-125v-250h125z" />
<glyph unicode="w" horiz-adv-x="875" d="M250 0h125v125h-125v500h-125v-500h125v-125zM750 125v500h-125v-500h125zM500 125v-125h125v125h-125v375h-125v-375h125z" />
<glyph unicode="x" horiz-adv-x="875" d="M500 250v-125h125v-125h125v125h-125v125h-125v125h-125v125h-125v125h-125v-125h125v-125h125v-125h125zM625 375v125h125v125h-125v-125h-125v-125h125zM125 0h125v125h-125v-125zM375 125v125h-125v-125h125z" />
<glyph unicode="y" horiz-adv-x="875" d="M375 0h125v375h-125v125h-125v125h-125v-125h125v-125h125v-375zM625 375v125h-125v-125h125zM750 500v125h-125v-125h125z" />
<glyph unicode="z" horiz-adv-x="625" d="M125 0h375v125h-250v125h-125v-250zM500 375v250h-375v-125h250v-125h125zM375 250v125h-125v-125h125z" />
<glyph unicode="{" horiz-adv-x="625" d="M250 0h250v125h-125v125h-125v125h125v125h125v125h-250v-250h-125v-125h125v-250z" />
<glyph unicode="|" horiz-adv-x="375" d="M125 -125h125v875h-125v-875z" />
<glyph unicode="}" horiz-adv-x="625" d="M125 0h250v250h125v125h-125v250h-250v-125h125v-125h125v-125h-125v-125h-125v-125z" />
<glyph unicode="~" d="M125 375h125v125h125v-125h125v125h125v125h-125v-125h-125v125h-125v-125h-125v-125z" />
<glyph unicode="&#xa1;" horiz-adv-x="375" d="M125 0h125v375h-125v-375zM125 500h125v125h-125v-125z" />
<glyph unicode="&#xa2;" horiz-adv-x="625" d="M250 0h125v125h125v125h-250v125h250v125h-125v125h-125v-125h-125v-375h125v-125z" />
<glyph unicode="&#xa3;" d="M125 0h500v125h-250v125h125v250h125v125h-250v-250h-250v-125h125v-125h-125v-125z" />
<glyph unicode="&#xa4;" horiz-adv-x="875" d="M375 0h125v125h125v-125h125v125h-125v375h125v125h-125v-125h-125v125h-125v-125h-125v125h-125v-125h125v-375h-125v-125h125v125h125v-125zM375 130v365h125v-365h-125z" />
<glyph unicode="&#xa5;" horiz-adv-x="875" d="M375 0h125v125h125v125h-125v125h125v125h125v125h-125v-125h-375v125h-125v-125h125v-125h125v-125h-125v-125h125v-125z" />
<glyph unicode="&#xa6;" horiz-adv-x="375" d="M125 0h125v250h-125v-250zM125 375h125v250h-125v-250z" />
<glyph unicode="&#xa7;" d="M250 -125h250v125h125v125h-125v125h125v125h-125v125h-250v125h250v125h-250v-125h-125v-125h125v-125h-125v-125h125v-125h250v-125h-250v-125zM255 375h240v-125h-240v125z" />
<glyph unicode="&#xa8;" horiz-adv-x="625" d="M125 625v-125h125v125h-125zM375 625v-125h125v125h-125z" />
<glyph unicode="&#xa9;" horiz-adv-x="1125" d="M250 -125h625v125h125v625h-125v125h-625v-125h-125v-625h125v-125zM255 625h615v-625h-615v625zM375 125h375v125h-250v125h250v125h-375v-375z" />
<glyph unicode="&#xaa;" horiz-adv-x="625" d="M250 250h250v250h-125v125h-125v-125h-125v-125h125v-125zM255 375v120h120v-120h-120z" />
<glyph unicode="&#xab;" horiz-adv-x="875" d="M375 125v125h-125v125h125v125h-125v-125h-125v-125h125v-125h125zM750 125v125h-125v125h125v125h-125v-125h-125v-125h125v-125h125z" />
<glyph unicode="&#xac;" d="M125 375v-125h375v-125h125v250h-500z" />
<glyph unicode="&#xad;" horiz-adv-x="625" d="M125 250h375v125h-375v-125z" />
<glyph unicode="&#xae;" horiz-adv-x="1125" d="M250 -125h625v125h125v625h-125v125h-625v-125h-125v-625h125v-125zM255 625h615v-625h-615v625zM375 125h125v250h250v125h-250v-125h-125v-250z" />
<glyph unicode="&#xaf;" d="M125 500h500v125h-500v-125z" />
<glyph unicode="&#xb0;" horiz-adv-x="625" d="M250 250h125v125h125v125h-125v125h-125v-125h-125v-125h125v-125zM255 380v115h115v-115h-115z" />
<glyph unicode="&#xb1;" horiz-adv-x="875" d="M375 0h-250v-125h625v125h-250v250h250v125h-250v250h-125v-250h-250v-125h250v-250z" />
<glyph unicode="&#xb2;" horiz-adv-x="625" d="M125 125h375v125h-125v125h125v125h-125v125h-125h-125v-125h250v-125h-125v-125h-125v-125z" />
<glyph unicode="&#xb3;" horiz-adv-x="625" d="M125 125h375v375h-125v125h-250v-125h125v-125h125v-125h-250v-125z" />
<glyph unicode="&#xb4;" horiz-adv-x="500" d="M125 375h125v125h125v125h-125v-125h-125v-125z" />
<glyph unicode="&#xb5;" d="M250 0h250v125h-250v500h-125v-750h125v125zM625 125v500h-125v-500h125z" />
<glyph unicode="&#xb6;" horiz-adv-x="875" d="M750 0v625h-500v-125h-125v-125h125v-125h125v-250h125v250h125v-250h125zM500 500h125v-125h-125v125zM255 500h120v-125h-120v125z" />
<glyph unicode="&#xb7;" horiz-adv-x="375" d="M125 375v-125h125v125h-125z" />
<glyph unicode="&#xb8;" horiz-adv-x="500" d="M125 -125h125v125h-125v-125zM375 0v125h-125v-125h125z" />
<glyph unicode="&#xb9;" horiz-adv-x="500" d="M250 125h125v500h-250v-125h125v-375z" />
<glyph unicode="&#xba;" horiz-adv-x="625" d="M250 250h125v125h125v125h-125v125h-125v-125h-125v-125h125v-125zM255 380v115h115v-115h-115z" />
<glyph unicode="&#xbb;" horiz-adv-x="875" d="M500 499v-125h125v-125h-125v-125h125v125h125v125h-125v125h-125zM125 499v-125h125v-125h-125v-125h125v125h125v125h-125v125h-125z" />
<glyph unicode="&#xbc;" horiz-adv-x="1125" d="M375 0v250h-125v-250h125zM625 375v250h-125v-250h125zM500 250v125h-125v-125h125zM125 250h125v375h-125v-375zM625 125h250v-125h125v375h-125v-125h-125v125h-125v-250z" />
<glyph unicode="&#xbd;" horiz-adv-x="1125" d="M375 0v250h-125v-250h125zM625 375h250v-125h-125v-125h-125v-125h375v125h-125v125h125v125h-125v125l-250 -1v126h-125v-250h125zM500 250v125h-125v-125h125zM125 250h125v375h-125v-375z" />
<glyph unicode="&#xbe;" horiz-adv-x="1250" d="M750 375v250h-125v-250h125zM625 250v125h-125v-125h125zM750 125h250v-125h125v375h-125v-125h-125v125h-125v-250zM125 125h250v-125h125v500h-125v125h-250v-125h125v-125h125v-125h-250v-125z" />
<glyph unicode="&#xbf;" d="M125 250v-125h125v-125h375v125h-375v125h-125zM500 375h-250v-125h250v125zM500 625h-125v-125h125v125z" />
<glyph unicode="&#xc0;" d="M500 0h125v500h-125v125h-250v-125h-125v-500h125v250h250v-250zM250 375v120h250v-120h-250zM375 750h125v125h-125v125h-125v-125h125v-125z" />
<glyph unicode="&#xc1;" d="M500 0h125v500h-125v125h-250v-125h-125v-500h125v250h250v-250zM250 375v120h250v-120h-250zM250 750h125v125h125v125h-125v-125h-125v-125z" />
<glyph unicode="&#xc2;" d="M500 0h125v500h-125v125h-250v-125h-125v-500h125v250h250v-250zM250 375v120h250v-120h-250zM125 750h125v125h250v-125h125v125h-125v125h-250v-125h-125v-125z" />
<glyph unicode="&#xc3;" d="M500 0h125v500h-125v125h-250v-125h-125v-500h125v250h250v-250zM250 375v120h250v-120h-250zM125 750h125v125h125v-125h125v125h125v125h-125v-125h-125v125h-125v-125h-125v-125z" />
<glyph unicode="&#xc4;" d="M500 0h125v500h-125v125h-250v-125h-125v-500h125v250h250v-250zM250 375v120h250v-120h-250zM125 750h125v125h-125v-125zM500 875v-125h125v125h-125z" />
<glyph unicode="&#xc5;" d="M500 0h125v500h-125v125h-250v-125h-125v-500h125v250h250v-250zM250 375v120h250v-120h-250zM250 750h250v125h125v125h-125v-125h-250v125h-125v-125h125v-125z" />
<glyph unicode="&#xc6;" horiz-adv-x="875" d="M375 0h375v125h-250v125h250v125h-250v125h250v125h-500v-125h-125v-500h125v250h125v-250zM250 375v120h125v-120h-125z" />
<glyph unicode="&#xc7;" d="M250 0v-125h-125v-125h125v125h125v125h125v125h-250v375h-125v-375h125v-125zM500 500v-125h125v125h-125v125h-250v-125h250zM625 125v125h-125v-125h125z" />
<glyph unicode="&#xc8;" horiz-adv-x="625" d="M125 0h375v125h-250v125h250v125h-250v125h250v125h-375v-625zM125 1000v-125h125v-125h125v125h-125v125h-125z" />
<glyph unicode="&#xc9;" horiz-adv-x="625" d="M125 0h375v125h-250v125h250v125h-250v125h250v125h-375v-625zM250 750h125v125h125v125h-125v-125h-125v-125z" />
<glyph unicode="&#xca;" horiz-adv-x="625" d="M125 0h375v125h-250v125h250v125h-250v125h250v125h-375v-625zM125 750h125v125h125v-125h125v125h-125v125h-125v-125h-125v-125z" />
<glyph unicode="&#xcb;" horiz-adv-x="625" d="M125 0h375v125h-250v125h250v125h-250v125h250v125h-375v-625zM125 750h125v125h-125v-125zM375 875v-125h125v125h-125z" />
<glyph unicode="&#xcc;" horiz-adv-x="375" d="M125 0h125v625h-125v-625zM125 750h125v125h-125v125h-125v-125h125v-125z" />
<glyph unicode="&#xcd;" horiz-adv-x="375" d="M125 0h125v625h-125v-625zM125 750h125v125h125v125h-125v-125h-125v-125z" />
<glyph unicode="&#xce;" horiz-adv-x="375" d="M125 0h125v625h-125v-625zM0 750h125v125h125v-125h125v125h-125v125h-125v-125h-125v-125z" />
<glyph unicode="&#xcf;" horiz-adv-x="375" d="M125 0h125v625h-125v-625zM125 750v125h-125v-125h125zM250 750h125v125h-125v-125z" />
<glyph unicode="&#xd0;" horiz-adv-x="875" d="M625 0v125h125v375h-125v125h-375v-250h-125v-125h125v-250h375zM375 500h245v-375h-245v125h125v125h-125v125z" />
<glyph unicode="&#xd1;" horiz-adv-x="875" d="M125 0h125v375h125v-125h125v-125h125v-125h125v625h-125v-375h-125v125h-125v125h-125v125h-125v-625zM250 750h125v125h125v-125h125v125h125v125h-125v-125h-125v125h-125v-125h-125v-125z" />
<glyph unicode="&#xd2;" d="M125 125h125v-125h250v125h125v375h-125v125h-250v-125h-125v-375zM250 495h250v-365h-250v365zM375 750h125v125h-125v125h-125v-125h125v-125z" />
<glyph unicode="&#xd3;" d="M125 125h125v-125h250v125h125v375h-125v125h-250v-125h-125v-375zM250 495h250v-365h-250v365zM250 750h125v125h125v125h-125v-125h-125v-125z" />
<glyph unicode="&#xd4;" d="M125 125h125v-125h250v125h125v375h-125v125h-250v-125h-125v-375zM250 495h250v-365h-250v365zM125 750h125v125h250v-125h125v125h-125v125h-250v-125h-125v-125z" />
<glyph unicode="&#xd5;" d="M125 125h125v-125h250v125h125v375h-125v125h-250v-125h-125v-375zM250 495h250v-365h-250v365zM125 750h125v125h125v-125h125v125h125v125h-125v-125h-125v125h-125v-125h-125v-125z" />
<glyph unicode="&#xd6;" d="M125 125h125v-125h250v125h125v375h-125v125h-250v-125h-125v-375zM250 495h250v-365h-250v365zM125 750h125v125h-125v-125zM500 750h125v125h-125v-125z" />
<glyph unicode="&#xd7;" horiz-adv-x="625" d="M125 125h125v125h125v-125h125v125h-125v125h125v125h-125v-125h-125v125h-125v-125h125v-125h-125v-125z" />
<glyph unicode="&#xd8;" horiz-adv-x="875" d="M125 125h125v-125h375v125h125v375h-125v125h-375v-125h-125v-375zM375 250h125v125h125v-245h-250v120zM250 250v245h250v-120h-125v-125h-125z" />
<glyph unicode="&#xd9;" d="M250 0h250v125h-250v500h-125v-500h125v-125zM625 125v500h-125v-500h125zM375 750h125v125h-125v125h-125v-125h125v-125z" />
<glyph unicode="&#xda;" d="M250 0h250v125h-250v500h-125v-500h125v-125zM625 125v500h-125v-500h125zM250 750h125v125h125v125h-125v-125h-125v-125z" />
<glyph unicode="&#xdb;" d="M250 0h250v125h-250v500h-125v-500h125v-125zM625 125v500h-125v-500h125zM125 750h125v125h250v-125h125v125h-125v125h-250v-125h-125v-125z" />
<glyph unicode="&#xdc;" d="M250 0h250v125h-250v500h-125v-500h125v-125zM625 125v500h-125v-500h125zM125 750h125v125h-125v-125zM500 750h125v125h-125v-125z" />
<glyph unicode="&#xdd;" horiz-adv-x="875" d="M375 0h125v375h-125v125h-125v125h-125v-125h125v-125h125v-375zM625 375v125h-125v-125h125zM750 500v125h-125v-125h125zM375 750h125v125h125v125h-125v-125h-125v-125z" />
<glyph unicode="&#xde;" horiz-adv-x="625" d="M125 0h125v125h125v125h125v125h-125v125h-125v125h-125v-625zM250 375h120v-125h-120v125z" />
<glyph unicode="&#xdf;" d="M125 0h125v250v250h250v-125h-125v-125h125v-125h-125v-125h125v125h125v125h-125v125h125v125h-125v125h-250v-125h-125v-500z" />
<glyph unicode="&#xe0;" d="M500 0h125v500h-125v125h-250v-125h-125v-500h125v250h250v-250zM250 375v120h250v-120h-250zM375 750h125v125h-125v125h-125v-125h125v-125z" />
<glyph unicode="&#xe1;" d="M500 0h125v500h-125v125h-250v-125h-125v-500h125v250h250v-250zM250 375v120h250v-120h-250zM250 750h125v125h125v125h-125v-125h-125v-125z" />
<glyph unicode="&#xe2;" d="M500 0h125v500h-125v125h-250v-125h-125v-500h125v250h250v-250zM250 375v120h250v-120h-250zM125 750h125v125h250v-125h125v125h-125v125h-250v-125h-125v-125z" />
<glyph unicode="&#xe3;" d="M500 0h125v500h-125v125h-250v-125h-125v-500h125v250h250v-250zM250 375v120h250v-120h-250zM125 750h125v125h125v-125h125v125h125v125h-125v-125h-125v125h-125v-125h-125v-125z" />
<glyph unicode="&#xe4;" d="M500 0h125v500h-125v125h-250v-125h-125v-500h125v250h250v-250zM250 375v120h250v-120h-250zM125 750h125v125h-125v-125zM500 875v-125h125v125h-125z" />
<glyph unicode="&#xe5;" d="M500 0h125v500h-125v125h-250v-125h-125v-500h125v250h250v-250zM250 375v120h250v-120h-250zM250 750h250v125h125v125h-125v-125h-250v125h-125v-125h125v-125z" />
<glyph unicode="&#xe6;" horiz-adv-x="875" d="M375 0h375v125h-250v125h250v125h-250v125h250v125h-500v-125h-125v-500h125v250h125v-250zM250 375v120h125v-120h-125z" />
<glyph unicode="&#xe7;" d="M250 0v-125h-125v-125h125v125h125v125h125v125h-250v375h-125v-375h125v-125zM500 500v-125h125v125h-125v125h-250v-125h250zM625 125v125h-125v-125h125z" />
<glyph unicode="&#xe8;" horiz-adv-x="625" d="M125 0h375v125h-250v125h250v125h-250v125h250v125h-375v-625zM125 1000v-125h125v-125h125v125h-125v125h-125z" />
<glyph unicode="&#xe9;" horiz-adv-x="625" d="M125 0h375v125h-250v125h250v125h-250v125h250v125h-375v-625zM250 750h125v125h125v125h-125v-125h-125v-125z" />
<glyph unicode="&#xea;" horiz-adv-x="625" d="M125 0h375v125h-250v125h250v125h-250v125h250v125h-375v-625zM125 750h125v125h125v-125h125v125h-125v125h-125v-125h-125v-125z" />
<glyph unicode="&#xeb;" horiz-adv-x="625" d="M125 0h375v125h-250v125h250v125h-250v125h250v125h-375v-625zM125 750h125v125h-125v-125zM375 875v-125h125v125h-125z" />
<glyph unicode="&#xec;" horiz-adv-x="375" d="M125 0h125v625h-125v-625zM125 750h125v125h-125v125h-125v-125h125v-125z" />
<glyph unicode="&#xed;" horiz-adv-x="375" d="M125 0h125v625h-125v-625zM125 750h125v125h125v125h-125v-125h-125v-125z" />
<glyph unicode="&#xee;" horiz-adv-x="375" d="M125 0h125v625h-125v-625zM0 750h125v125h125v-125h125v125h-125v125h-125v-125h-125v-125z" />
<glyph unicode="&#xef;" horiz-adv-x="375" d="M125 0h125v625h-125v-625zM125 750v125h-125v-125h125zM250 750h125v125h-125v-125z" />
<glyph unicode="&#xf0;" horiz-adv-x="875" d="M625 0v125h125v375h-125v125h-375v-250h-125v-125h125v-250h375zM375 500h245v-375h-245v125h125v125h-125v125z" />
<glyph unicode="&#xf1;" horiz-adv-x="875" d="M125 0h125v375h125v-125h125v-125h125v-125h125v625h-125v-375h-125v125h-125v125h-125v125h-125v-625zM250 750h125v125h125v-125h125v125h125v125h-125v-125h-125v125h-125v-125h-125v-125z" />
<glyph unicode="&#xf2;" d="M125 125h125v-125h250v125h125v375h-125v125h-250v-125h-125v-375zM250 495h250v-365h-250v365zM375 750h125v125h-125v125h-125v-125h125v-125z" />
<glyph unicode="&#xf3;" d="M125 125h125v-125h250v125h125v375h-125v125h-250v-125h-125v-375zM250 495h250v-365h-250v365zM250 750h125v125h125v125h-125v-125h-125v-125z" />
<glyph unicode="&#xf4;" d="M125 125h125v-125h250v125h125v375h-125v125h-250v-125h-125v-375zM250 495h250v-365h-250v365zM125 750h125v125h250v-125h125v125h-125v125h-250v-125h-125v-125z" />
<glyph unicode="&#xf5;" d="M125 125h125v-125h250v125h125v375h-125v125h-250v-125h-125v-375zM250 495h250v-365h-250v365zM125 750h125v125h125v-125h125v125h125v125h-125v-125h-125v125h-125v-125h-125v-125z" />
<glyph unicode="&#xf6;" d="M125 125h125v-125h250v125h125v375h-125v125h-250v-125h-125v-375zM250 495h250v-365h-250v365zM125 750h125v125h-125v-125zM500 750h125v125h-125v-125z" />
<glyph unicode="&#xf7;" horiz-adv-x="625" d="M125 250h375v125h-375v-125zM250 500h125v125h-125v-125zM250 125v-125h125v125h-125z" />
<glyph unicode="&#xf8;" horiz-adv-x="875" d="M125 125h125v-125h375v125h125v375h-125v125h-375v-125h-125v-375zM375 250h125v125h125v-245h-250v120zM250 250v245h250v-120h-125v-125h-125z" />
<glyph unicode="&#xf9;" d="M250 0h250v125h-250v500h-125v-500h125v-125zM625 125v500h-125v-500h125zM375 750h125v125h-125v125h-125v-125h125v-125z" />
<glyph unicode="&#xfa;" d="M250 0h250v125h-250v500h-125v-500h125v-125zM625 125v500h-125v-500h125zM250 750h125v125h125v125h-125v-125h-125v-125z" />
<glyph unicode="&#xfb;" d="M250 0h250v125h-250v500h-125v-500h125v-125zM625 125v500h-125v-500h125zM125 750h125v125h250v-125h125v125h-125v125h-250v-125h-125v-125z" />
<glyph unicode="&#xfc;" d="M250 0h250v125h-250v500h-125v-500h125v-125zM625 125v500h-125v-500h125zM125 750h125v125h-125v-125zM500 750h125v125h-125v-125z" />
<glyph unicode="&#xfd;" horiz-adv-x="875" d="M375 0h125v375h-125v125h-125v125h-125v-125h125v-125h125v-375zM625 375v125h-125v-125h125zM750 500v125h-125v-125h125zM375 750h125v125h125v125h-125v-125h-125v-125z" />
<glyph unicode="&#xfe;" horiz-adv-x="625" d="M125 0h125v125h125v125h125v125h-125v125h-125v125h-125v-625zM250 375h120v-125h-120v125z" />
<glyph unicode="&#xff;" horiz-adv-x="875" d="M375 0h125v375h-125v125h-125v125h-125v-125h125v-125h125v-375zM625 375v125h-125v-125h125zM750 500v125h-125v-125h125zM250 750h125v125h-125v-125zM500 750h125v125h-125v-125z" />
<glyph unicode="&#x152;" horiz-adv-x="875" d="M125 125h125v-125h500v125h-250v125h250v125h-250v125h250v125h-500v-125h-125v-375zM375 126h-120v375h120v-375z" />
<glyph unicode="&#x153;" horiz-adv-x="875" d="M125 125h125v-125h500v125h-250v125h250v125h-250v125h250v125h-500v-125h-125v-375zM375 126h-120v375h120v-375z" />
<glyph unicode="&#x178;" horiz-adv-x="875" d="M375 0h125v375h-125v125h-125v125h-125v-125h125v-125h125v-375zM625 375v125h-125v-125h125zM750 500v125h-125v-125h125zM250 750h125v125h-125v-125zM500 750h125v125h-125v-125z" />
<glyph unicode="&#x2c6;" horiz-adv-x="625" d="M125 500h125v125h125v-125h125v125h-125v125h-125v-125h-125v-125z" />
<glyph unicode="&#x2dc;" d="M125 375h125v125h125v-125h125v125h125v125h-125v-125h-125v125h-125v-125h-125v-125z" />
<glyph unicode="&#x2000;" horiz-adv-x="500" />
<glyph unicode="&#x2001;" horiz-adv-x="1000" />
<glyph unicode="&#x2002;" horiz-adv-x="500" />
<glyph unicode="&#x2003;" horiz-adv-x="1000" />
<glyph unicode="&#x2004;" horiz-adv-x="333" />
<glyph unicode="&#x2005;" horiz-adv-x="250" />
<glyph unicode="&#x2006;" horiz-adv-x="166" />
<glyph unicode="&#x2007;" horiz-adv-x="166" />
<glyph unicode="&#x2008;" horiz-adv-x="125" />
<glyph unicode="&#x2009;" horiz-adv-x="200" />
<glyph unicode="&#x200a;" horiz-adv-x="55" />
<glyph unicode="&#x2010;" horiz-adv-x="625" d="M125 250h375v125h-375v-125z" />
<glyph unicode="&#x2011;" horiz-adv-x="625" d="M125 250h375v125h-375v-125z" />
<glyph unicode="&#x2012;" horiz-adv-x="625" d="M125 250h375v125h-375v-125z" />
<glyph unicode="&#x2013;" d="M125 375v-125h500v125h-500z" />
<glyph unicode="&#x2014;" horiz-adv-x="1000" d="M125 375v-125h750v125h-750z" />
<glyph unicode="&#x2018;" horiz-adv-x="375" d="M125 375h125v250h-125v-250z" />
<glyph unicode="&#x2019;" horiz-adv-x="375" d="M125 375h125v250h-125v-250z" />
<glyph unicode="&#x201a;" horiz-adv-x="500" d="M125 -125h125v125h-125v-125zM375 0v125h-125v-125h125z" />
<glyph unicode="&#x201c;" horiz-adv-x="625" d="M125 625v-250h125v250h-125zM375 375h125v250h-125v-250z" />
<glyph unicode="&#x201d;" horiz-adv-x="625" d="M125 625v-250h125v250h-125zM375 375h125v250h-125v-250z" />
<glyph unicode="&#x201e;" horiz-adv-x="625" d="M125 250v-250h125v250h-125zM375 0h125v250h-125v-250z" />
<glyph unicode="&#x2022;" horiz-adv-x="375" d="M125 375v-125h125v125h-125z" />
<glyph unicode="&#x2026;" horiz-adv-x="875" d="M125 0h125v125h-125v-125zM375 0h125v125h-125v-125zM625 125v-125h125v125h-125z" />
<glyph unicode="&#x202f;" horiz-adv-x="200" />
<glyph unicode="&#x2039;" horiz-adv-x="500" d="M375 125v125h-125v125h125v125h-125v-125h-125v-125h125v-125h125z" />
<glyph unicode="&#x203a;" horiz-adv-x="500" d="M250 250h125v125h-125v125h-125v-125h125v-125h-125v-125h125v125z" />
<glyph unicode="&#x205f;" horiz-adv-x="250" />
<glyph unicode="&#x20ac;" horiz-adv-x="875" d="M375 0h250v125h-250v125h125v125h-125v125h-125v-124l-125 -1v-125l125 -1v-124h125v-125zM625 500v-125h125v125h-125v125h-250v-125h250zM750 125v125h-125v-125h125z" />
<glyph unicode="&#x2122;" horiz-adv-x="1250" d="M250 375h125v250h125v-250h125v250h125v-250h125v250h125v-250h125v375h-250v-125h-125v125h-625v-125h125v-250z" />
<glyph unicode="&#x25fc;" horiz-adv-x="625" d="M0 625h625v-625h-625v625z" />
</font>
</defs>
</svg>
